<svg width="358" height="379" viewBox="0 0 358 379" fill="none" xmlns="http://www.w3.org/2000/svg">
<path d="M131 2L2.00002 77" stroke="white" stroke-width="15" stroke-linecap="round"/>
<path d="M51 251L3 222" stroke="white" stroke-width="15" stroke-linecap="round"/>
<path d="M178 377L51 301" stroke="white" stroke-width="15" stroke-linecap="round"/>
<path d="M305 154L177 81" stroke="white" stroke-width="15" stroke-linecap="round"/>
<path d="M356 76L227 3" stroke="white" stroke-width="15" stroke-linecap="round"/>
<path d="M181 271L99 223" stroke="white" stroke-width="15" stroke-linecap="round"/>
<path d="M181 204L99 156" stroke="white" stroke-width="15" stroke-linecap="round"/>
<path d="M181 237L99 189" stroke="white" stroke-width="15" stroke-linecap="round"/>
<path d="M181 174L99 126" stroke="white" stroke-width="15" stroke-linecap="round"/>
<path d="M258 76L131 2" stroke="white" stroke-width="15" stroke-linecap="round"/>
<path d="M227 3L99 77" stroke="white" stroke-width="15" stroke-linecap="round"/>
<path d="M177 81L51 156" stroke="white" stroke-width="15" stroke-linecap="round"/>
<path d="M258 223L181 271" stroke="white" stroke-width="15" stroke-linecap="round"/>
<path d="M258 189L181 237" stroke="white" stroke-width="15" stroke-linecap="round"/>
<path d="M258 156L181 204" stroke="white" stroke-width="15" stroke-linecap="round"/>
<path d="M258 126L181 174" stroke="white" stroke-width="15" stroke-linecap="round"/>
<path d="M305 302L178 377" stroke="white" stroke-width="15" stroke-linecap="round"/>
<path d="M356 223L305 254" stroke="white" stroke-width="15" stroke-linecap="round"/>
<path d="M2 77L2.99662 222" stroke="white" stroke-width="15" stroke-linecap="round"/>
<path d="M51 156L51 301" stroke="white" stroke-width="15" stroke-linecap="round"/>
<path d="M181 271L178 377" stroke="white" stroke-width="15" stroke-linecap="round"/>
<path d="M258 76L258 223" stroke="white" stroke-width="15" stroke-linecap="round"/>
<path d="M356 76L356 223" stroke="white" stroke-width="15" stroke-linecap="round"/>
<path d="M99 77L99 223" stroke="white" stroke-width="15" stroke-linecap="round"/>
<path d="M305 154V302" stroke="white" stroke-width="15" stroke-linecap="round"/>
</svg>
